<?xml version="1.0" encoding="us-ascii" standalone="no"?><svg xmlns="http://www.w3.org/2000/svg" xmlns:xlink="http://www.w3.org/1999/xlink" contentStyleType="text/css" height="257px" preserveAspectRatio="none" style="width:1068px;height:257px;background:#FFFFFF;" version="1.1" viewBox="0 0 1068 257" width="1068px" zoomAndPan="magnify"><defs/><g><text fill="#000000" font-family="sans-serif" font-size="14" font-weight="bold" lengthAdjust="spacing" textLength="100" x="477" y="25.1074">Domain Model</text><!--class User--><g id="elem_User"><rect codeLine="12" fill="#F1F1F1" height="32" id="User" rx="2.5" ry="2.5" style="stroke:#181818;stroke-width:0.5;" width="61" x="685.5" y="112.3838"/><ellipse cx="700.5" cy="128.3838" fill="#ADD1B2" rx="11" ry="11" style="stroke:#181818;stroke-width:1.0;"/><path d="M703.2656,124.2588 Q703.4219,124.04 703.6094,123.9307 Q703.7969,123.8213 704.0156,123.8213 Q704.3906,123.8213 704.625,124.0869 Q704.8594,124.3369 704.8594,124.9463 L704.8594,126.3994 Q704.8594,127.0088 704.625,127.2744 Q704.3906,127.54 704.0156,127.54 Q703.6719,127.54 703.4688,127.3369 Q703.2656,127.1494 703.1563,126.6338 Q703.1094,126.2744 702.9219,126.0869 Q702.5938,125.7119 701.9844,125.4932 Q701.375,125.2744 700.75,125.2744 Q699.9844,125.2744 699.3438,125.6025 Q698.7188,125.9307 698.2188,126.6807 Q697.7344,127.4307 697.7344,128.4619 L697.7344,129.5557 Q697.7344,130.79 698.625,131.6182 Q699.5156,132.4307 701.1094,132.4307 Q702.0469,132.4307 702.7031,132.1807 Q703.0938,132.0244 703.5156,131.5869 Q703.7813,131.3213 703.9219,131.2432 Q704.0781,131.165 704.2813,131.165 Q704.6094,131.165 704.8594,131.4307 Q705.125,131.6807 705.125,132.0244 Q705.125,132.3682 704.7813,132.7744 Q704.2813,133.3525 703.4844,133.6807 Q702.4063,134.1338 701.1094,134.1338 Q699.5938,134.1338 698.3906,133.5088 Q697.4063,133.0088 696.7188,131.9463 Q696.0313,130.8682 696.0313,129.5869 L696.0313,128.4307 Q696.0313,127.1025 696.6406,125.9619 Q697.2656,124.8057 698.3594,124.1963 Q699.4531,123.5713 700.6875,123.5713 Q701.4219,123.5713 702.0625,123.7432 Q702.7188,123.8994 703.2656,124.2588 Z " fill="#000000"/><text fill="#000000" font-family="sans-serif" font-size="14" lengthAdjust="spacing" textLength="29" x="714.5" y="134.1807">User</text></g><!--class Teacher--><g id="elem_Teacher"><rect codeLine="13" fill="#F1F1F1" height="32" id="Teacher" rx="2.5" ry="2.5" style="stroke:#181818;stroke-width:0.5;" width="85" x="437" y="112.3838"/><ellipse cx="452" cy="128.3838" fill="#ADD1B2" rx="11" ry="11" style="stroke:#181818;stroke-width:1.0;"/><path d="M454.7656,124.2588 Q454.9219,124.04 455.1094,123.9307 Q455.2969,123.8213 455.5156,123.8213 Q455.8906,123.8213 456.125,124.0869 Q456.3594,124.3369 456.3594,124.9463 L456.3594,126.3994 Q456.3594,127.0088 456.125,127.2744 Q455.8906,127.54 455.5156,127.54 Q455.1719,127.54 454.9688,127.3369 Q454.7656,127.1494 454.6563,126.6338 Q454.6094,126.2744 454.4219,126.0869 Q454.0938,125.7119 453.4844,125.4932 Q452.875,125.2744 452.25,125.2744 Q451.4844,125.2744 450.8438,125.6025 Q450.2188,125.9307 449.7188,126.6807 Q449.2344,127.4307 449.2344,128.4619 L449.2344,129.5557 Q449.2344,130.79 450.125,131.6182 Q451.0156,132.4307 452.6094,132.4307 Q453.5469,132.4307 454.2031,132.1807 Q454.5938,132.0244 455.0156,131.5869 Q455.2813,131.3213 455.4219,131.2432 Q455.5781,131.165 455.7813,131.165 Q456.1094,131.165 456.3594,131.4307 Q456.625,131.6807 456.625,132.0244 Q456.625,132.3682 456.2813,132.7744 Q455.7813,133.3525 454.9844,133.6807 Q453.9063,134.1338 452.6094,134.1338 Q451.0938,134.1338 449.8906,133.5088 Q448.9063,133.0088 448.2188,131.9463 Q447.5313,130.8682 447.5313,129.5869 L447.5313,128.4307 Q447.5313,127.1025 448.1406,125.9619 Q448.7656,124.8057 449.8594,124.1963 Q450.9531,123.5713 452.1875,123.5713 Q452.9219,123.5713 453.5625,123.7432 Q454.2188,123.8994 454.7656,124.2588 Z " fill="#000000"/><text fill="#000000" font-family="sans-serif" font-size="14" lengthAdjust="spacing" textLength="53" x="466" y="134.1807">Teacher</text></g><!--class Student--><g id="elem_Student"><rect codeLine="14" fill="#F1F1F1" height="32" id="Student" rx="2.5" ry="2.5" style="stroke:#181818;stroke-width:0.5;" width="81" x="10.5" y="71.3838"/><ellipse cx="25.5" cy="87.3838" fill="#ADD1B2" rx="11" ry="11" style="stroke:#181818;stroke-width:1.0;"/><path d="M28.2656,83.2588 Q28.4219,83.04 28.6094,82.9307 Q28.7969,82.8213 29.0156,82.8213 Q29.3906,82.8213 29.625,83.0869 Q29.8594,83.3369 29.8594,83.9463 L29.8594,85.3994 Q29.8594,86.0088 29.625,86.2744 Q29.3906,86.54 29.0156,86.54 Q28.6719,86.54 28.4688,86.3369 Q28.2656,86.1494 28.1563,85.6338 Q28.1094,85.2744 27.9219,85.0869 Q27.5938,84.7119 26.9844,84.4932 Q26.375,84.2744 25.75,84.2744 Q24.9844,84.2744 24.3438,84.6025 Q23.7188,84.9307 23.2188,85.6807 Q22.7344,86.4307 22.7344,87.4619 L22.7344,88.5557 Q22.7344,89.79 23.625,90.6182 Q24.5156,91.4307 26.1094,91.4307 Q27.0469,91.4307 27.7031,91.1807 Q28.0938,91.0244 28.5156,90.5869 Q28.7813,90.3213 28.9219,90.2432 Q29.0781,90.165 29.2813,90.165 Q29.6094,90.165 29.8594,90.4307 Q30.125,90.6807 30.125,91.0244 Q30.125,91.3682 29.7813,91.7744 Q29.2813,92.3525 28.4844,92.6807 Q27.4063,93.1338 26.1094,93.1338 Q24.5938,93.1338 23.3906,92.5088 Q22.4063,92.0088 21.7188,90.9463 Q21.0313,89.8682 21.0313,88.5869 L21.0313,87.4307 Q21.0313,86.1025 21.6406,84.9619 Q22.2656,83.8057 23.3594,83.1963 Q24.4531,82.5713 25.6875,82.5713 Q26.4219,82.5713 27.0625,82.7432 Q27.7188,82.8994 28.2656,83.2588 Z " fill="#000000"/><text fill="#000000" font-family="sans-serif" font-size="14" lengthAdjust="spacing" textLength="49" x="39.5" y="93.1807">Student</text></g><!--class Manager--><g id="elem_Manager"><rect codeLine="15" fill="#F1F1F1" height="32" id="Manager" rx="2.5" ry="2.5" style="stroke:#181818;stroke-width:0.5;" width="88" x="7" y="218.3838"/><ellipse cx="22" cy="234.3838" fill="#ADD1B2" rx="11" ry="11" style="stroke:#181818;stroke-width:1.0;"/><path d="M24.7656,230.2588 Q24.9219,230.04 25.1094,229.9307 Q25.2969,229.8213 25.5156,229.8213 Q25.8906,229.8213 26.125,230.0869 Q26.3594,230.3369 26.3594,230.9463 L26.3594,232.3994 Q26.3594,233.0088 26.125,233.2744 Q25.8906,233.54 25.5156,233.54 Q25.1719,233.54 24.9688,233.3369 Q24.7656,233.1494 24.6563,232.6338 Q24.6094,232.2744 24.4219,232.0869 Q24.0938,231.7119 23.4844,231.4932 Q22.875,231.2744 22.25,231.2744 Q21.4844,231.2744 20.8438,231.6025 Q20.2188,231.9307 19.7188,232.6807 Q19.2344,233.4307 19.2344,234.4619 L19.2344,235.5557 Q19.2344,236.79 20.125,237.6182 Q21.0156,238.4307 22.6094,238.4307 Q23.5469,238.4307 24.2031,238.1807 Q24.5938,238.0244 25.0156,237.5869 Q25.2813,237.3213 25.4219,237.2432 Q25.5781,237.165 25.7813,237.165 Q26.1094,237.165 26.3594,237.4307 Q26.625,237.6807 26.625,238.0244 Q26.625,238.3682 26.2813,238.7744 Q25.7813,239.3525 24.9844,239.6807 Q23.9063,240.1338 22.6094,240.1338 Q21.0938,240.1338 19.8906,239.5088 Q18.9063,239.0088 18.2188,237.9463 Q17.5313,236.8682 17.5313,235.5869 L17.5313,234.4307 Q17.5313,233.1025 18.1406,231.9619 Q18.7656,230.8057 19.8594,230.1963 Q20.9531,229.5713 22.1875,229.5713 Q22.9219,229.5713 23.5625,229.7432 Q24.2188,229.8994 24.7656,230.2588 Z " fill="#000000"/><text fill="#000000" font-family="sans-serif" font-size="14" lengthAdjust="spacing" textLength="56" x="36" y="240.1807">Manager</text></g><!--class Course--><g id="elem_Course"><rect codeLine="17" fill="#F1F1F1" height="32" id="Course" rx="2.5" ry="2.5" style="stroke:#181818;stroke-width:0.5;" width="78" x="223" y="140.3838"/><ellipse cx="238" cy="156.3838" fill="#ADD1B2" rx="11" ry="11" style="stroke:#181818;stroke-width:1.0;"/><path d="M240.7656,152.2588 Q240.9219,152.04 241.1094,151.9307 Q241.2969,151.8213 241.5156,151.8213 Q241.8906,151.8213 242.125,152.0869 Q242.3594,152.3369 242.3594,152.9463 L242.3594,154.3994 Q242.3594,155.0088 242.125,155.2744 Q241.8906,155.54 241.5156,155.54 Q241.1719,155.54 240.9688,155.3369 Q240.7656,155.1494 240.6563,154.6338 Q240.6094,154.2744 240.4219,154.0869 Q240.0938,153.7119 239.4844,153.4932 Q238.875,153.2744 238.25,153.2744 Q237.4844,153.2744 236.8438,153.6025 Q236.2188,153.9307 235.7188,154.6807 Q235.2344,155.4307 235.2344,156.4619 L235.2344,157.5557 Q235.2344,158.79 236.125,159.6182 Q237.0156,160.4307 238.6094,160.4307 Q239.5469,160.4307 240.2031,160.1807 Q240.5938,160.0244 241.0156,159.5869 Q241.2813,159.3213 241.4219,159.2432 Q241.5781,159.165 241.7813,159.165 Q242.1094,159.165 242.3594,159.4307 Q242.625,159.6807 242.625,160.0244 Q242.625,160.3682 242.2813,160.7744 Q241.7813,161.3525 240.9844,161.6807 Q239.9063,162.1338 238.6094,162.1338 Q237.0938,162.1338 235.8906,161.5088 Q234.9063,161.0088 234.2188,159.9463 Q233.5313,158.8682 233.5313,157.5869 L233.5313,156.4307 Q233.5313,155.1025 234.1406,153.9619 Q234.7656,152.8057 235.8594,152.1963 Q236.9531,151.5713 238.1875,151.5713 Q238.9219,151.5713 239.5625,151.7432 Q240.2188,151.8994 240.7656,152.2588 Z " fill="#000000"/><text fill="#000000" font-family="sans-serif" font-size="14" lengthAdjust="spacing" textLength="46" x="252" y="162.1807">Course</text></g><!--class Meeting--><g id="elem_Meeting"><rect codeLine="18" fill="#F1F1F1" height="32" id="Meeting" rx="2.5" ry="2.5" style="stroke:#181818;stroke-width:0.5;" width="82" x="979" y="112.3838"/><ellipse cx="994" cy="128.3838" fill="#ADD1B2" rx="11" ry="11" style="stroke:#181818;stroke-width:1.0;"/><path d="M996.7656,124.2588 Q996.9219,124.04 997.1094,123.9307 Q997.2969,123.8213 997.5156,123.8213 Q997.8906,123.8213 998.125,124.0869 Q998.3594,124.3369 998.3594,124.9463 L998.3594,126.3994 Q998.3594,127.0088 998.125,127.2744 Q997.8906,127.54 997.5156,127.54 Q997.1719,127.54 996.9688,127.3369 Q996.7656,127.1494 996.6563,126.6338 Q996.6094,126.2744 996.4219,126.0869 Q996.0938,125.7119 995.4844,125.4932 Q994.875,125.2744 994.25,125.2744 Q993.4844,125.2744 992.8438,125.6025 Q992.2188,125.9307 991.7188,126.6807 Q991.2344,127.4307 991.2344,128.4619 L991.2344,129.5557 Q991.2344,130.79 992.125,131.6182 Q993.0156,132.4307 994.6094,132.4307 Q995.5469,132.4307 996.2031,132.1807 Q996.5938,132.0244 997.0156,131.5869 Q997.2813,131.3213 997.4219,131.2432 Q997.5781,131.165 997.7813,131.165 Q998.1094,131.165 998.3594,131.4307 Q998.625,131.6807 998.625,132.0244 Q998.625,132.3682 998.2813,132.7744 Q997.7813,133.3525 996.9844,133.6807 Q995.9063,134.1338 994.6094,134.1338 Q993.0938,134.1338 991.8906,133.5088 Q990.9063,133.0088 990.2188,131.9463 Q989.5313,130.8682 989.5313,129.5869 L989.5313,128.4307 Q989.5313,127.1025 990.1406,125.9619 Q990.7656,124.8057 991.8594,124.1963 Q992.9531,123.5713 994.1875,123.5713 Q994.9219,123.5713 995.5625,123.7432 Q996.2188,123.8994 996.7656,124.2588 Z " fill="#000000"/><text fill="#000000" font-family="sans-serif" font-size="14" lengthAdjust="spacing" textLength="50" x="1008" y="134.1807">Meeting</text></g><!--class Exam--><g id="elem_Exam"><rect codeLine="19" fill="#F1F1F1" height="32" id="Exam" rx="2.5" ry="2.5" style="stroke:#181818;stroke-width:0.5;" width="66" x="336" y="85.3838"/><ellipse cx="351" cy="101.3838" fill="#ADD1B2" rx="11" ry="11" style="stroke:#181818;stroke-width:1.0;"/><path d="M353.7656,97.2588 Q353.9219,97.04 354.1094,96.9307 Q354.2969,96.8213 354.5156,96.8213 Q354.8906,96.8213 355.125,97.0869 Q355.3594,97.3369 355.3594,97.9463 L355.3594,99.3994 Q355.3594,100.0088 355.125,100.2744 Q354.8906,100.54 354.5156,100.54 Q354.1719,100.54 353.9688,100.3369 Q353.7656,100.1494 353.6563,99.6338 Q353.6094,99.2744 353.4219,99.0869 Q353.0938,98.7119 352.4844,98.4932 Q351.875,98.2744 351.25,98.2744 Q350.4844,98.2744 349.8438,98.6025 Q349.2188,98.9307 348.7188,99.6807 Q348.2344,100.4307 348.2344,101.4619 L348.2344,102.5557 Q348.2344,103.79 349.125,104.6182 Q350.0156,105.4307 351.6094,105.4307 Q352.5469,105.4307 353.2031,105.1807 Q353.5938,105.0244 354.0156,104.5869 Q354.2813,104.3213 354.4219,104.2432 Q354.5781,104.165 354.7813,104.165 Q355.1094,104.165 355.3594,104.4307 Q355.625,104.6807 355.625,105.0244 Q355.625,105.3682 355.2813,105.7744 Q354.7813,106.3525 353.9844,106.6807 Q352.9063,107.1338 351.6094,107.1338 Q350.0938,107.1338 348.8906,106.5088 Q347.9063,106.0088 347.2188,104.9463 Q346.5313,103.8682 346.5313,102.5869 L346.5313,101.4307 Q346.5313,100.1025 347.1406,98.9619 Q347.7656,97.8057 348.8594,97.1963 Q349.9531,96.5713 351.1875,96.5713 Q351.9219,96.5713 352.5625,96.7432 Q353.2188,96.8994 353.7656,97.2588 Z " fill="#000000"/><text fill="#000000" font-family="sans-serif" font-size="14" lengthAdjust="spacing" textLength="34" x="365" y="107.1807">Exam</text></g><!--class SharedBoard--><g id="elem_SharedBoard"><rect codeLine="20" fill="#F1F1F1" height="32" id="SharedBoard" rx="2.5" ry="2.5" style="stroke:#181818;stroke-width:0.5;" width="116" x="658" y="198.3838"/><ellipse cx="673" cy="214.3838" fill="#ADD1B2" rx="11" ry="11" style="stroke:#181818;stroke-width:1.0;"/><path d="M675.7656,210.2588 Q675.9219,210.04 676.1094,209.9307 Q676.2969,209.8213 676.5156,209.8213 Q676.8906,209.8213 677.125,210.0869 Q677.3594,210.3369 677.3594,210.9463 L677.3594,212.3994 Q677.3594,213.0088 677.125,213.2744 Q676.8906,213.54 676.5156,213.54 Q676.1719,213.54 675.9688,213.3369 Q675.7656,213.1494 675.6563,212.6338 Q675.6094,212.2744 675.4219,212.0869 Q675.0938,211.7119 674.4844,211.4932 Q673.875,211.2744 673.25,211.2744 Q672.4844,211.2744 671.8438,211.6025 Q671.2188,211.9307 670.7188,212.6807 Q670.2344,213.4307 670.2344,214.4619 L670.2344,215.5557 Q670.2344,216.79 671.125,217.6182 Q672.0156,218.4307 673.6094,218.4307 Q674.5469,218.4307 675.2031,218.1807 Q675.5938,218.0244 676.0156,217.5869 Q676.2813,217.3213 676.4219,217.2432 Q676.5781,217.165 676.7813,217.165 Q677.1094,217.165 677.3594,217.4307 Q677.625,217.6807 677.625,218.0244 Q677.625,218.3682 677.2813,218.7744 Q676.7813,219.3525 675.9844,219.6807 Q674.9063,220.1338 673.6094,220.1338 Q672.0938,220.1338 670.8906,219.5088 Q669.9063,219.0088 669.2188,217.9463 Q668.5313,216.8682 668.5313,215.5869 L668.5313,214.4307 Q668.5313,213.1025 669.1406,211.9619 Q669.7656,210.8057 670.8594,210.1963 Q671.9531,209.5713 673.1875,209.5713 Q673.9219,209.5713 674.5625,209.7432 Q675.2188,209.8994 675.7656,210.2588 Z " fill="#000000"/><text fill="#000000" font-family="sans-serif" font-size="14" lengthAdjust="spacing" textLength="84" x="687" y="220.1807">SharedBoard</text></g><!--link Teacher to User--><g id="link_Teacher_User"><path codeLine="24" d="M522.15,128.3838 C569.01,128.3838 643.94,128.3838 685.25,128.3838 " fill="none" id="Teacher-User" style="stroke:#181818;stroke-width:1.0;"/><polygon fill="#000000" points="562,119.0293,552.9549,116.0904,552.9549,121.9682,562,119.0293" style="stroke:#000000;stroke-width:1.0;"/><text fill="#000000" font-family="sans-serif" font-size="13" lengthAdjust="spacing" textLength="61" x="566" y="124.4121">perform as</text></g><!--link Student to User--><g id="link_Student_User"><path codeLine="25" d="M91.64,72.4838 C102.32,69.1438 113.97,66.0838 125,64.3838 C154.87,59.7938 162.78,64.1738 193,64.3838 C387.03,65.7438 438.94,57.7538 628,101.3838 C647.26,105.8238 668.46,112.3738 685.1,117.9038 " fill="none" id="Student-User" style="stroke:#181818;stroke-width:1.0;"/><polygon fill="#000000" points="340.9854,56.4109,332.191,52.7903,331.7424,58.651,340.9854,56.4109" style="stroke:#000000;stroke-width:1.0;"/><text fill="#000000" font-family="sans-serif" font-size="13" lengthAdjust="spacing" textLength="61" x="345" y="61.4121">perform as</text></g><!--link Manager to User--><g id="link_Manager_User"><path codeLine="26" d="M95.26,230.3138 C123.19,227.5538 160.29,223.6438 193,219.3838 C381.6,194.8238 606.04,150.5838 685.42,134.4638 " fill="none" id="Manager-User" style="stroke:#181818;stroke-width:1.0;"/><polygon fill="#000000" points="340.9353,177.2277,331.5361,175.7769,332.4784,181.5787,340.9353,177.2277" style="stroke:#000000;stroke-width:1.0;"/><text fill="#000000" font-family="sans-serif" font-size="13" lengthAdjust="spacing" textLength="61" x="345" y="183.4121">perform as</text></g><!--link Course to Teacher--><g id="link_Course_Teacher"><path codeLine="27" d="M301.22,158.8338 C330.43,159.9338 371.56,159.7838 407,153.3838 C417.87,151.4238 429.31,148.0538 439.76,144.4138 " fill="none" id="Course-Teacher" style="stroke:#181818;stroke-width:1.0;"/><polygon fill="#000000" points="348.4731,143.5117,339.1724,141.5249,339.7809,147.3712,348.4731,143.5117" style="stroke:#000000;stroke-width:1.0;"/><text fill="#000000" font-family="sans-serif" font-size="13" lengthAdjust="spacing" textLength="46" x="352.5" y="149.4121">teaches</text></g><!--link Exam to Teacher--><g id="link_Exam_Teacher"><path codeLine="28" d="M402.26,109.4138 C413.13,112.1138 425.42,115.1738 436.9,118.0338 " fill="none" id="Exam-Teacher" style="stroke:#181818;stroke-width:1.0;"/></g><!--link Student to Exam--><g id="link_Student_Exam"><path codeLine="29" d="M91.7,89.1438 C155.02,91.9438 277.66,97.3838 335.85,99.9638 " fill="none" id="Student-Exam" style="stroke:#181818;stroke-width:1.0;"/><polygon fill="#000000" points="145.4951,82.2507,136.589,78.9142,136.3288,84.7863,145.4951,82.2507" style="stroke:#000000;stroke-width:1.0;"/><text fill="#000000" font-family="sans-serif" font-size="13" lengthAdjust="spacing" textLength="32" x="149.5" y="87.4121">takes</text></g><!--link User to SharedBoard--><g id="link_User_SharedBoard"><path codeLine="30" d="M716,144.4838 C716,159.8338 716,182.8338 716,198.2038 " fill="none" id="User-SharedBoard" style="stroke:#181818;stroke-width:1.0;"/><polygon fill="#000000" points="674.5,176.5293,677.4389,167.4842,671.5611,167.4842,674.5,176.5293" style="stroke:#000000;stroke-width:1.0;"/><text fill="#000000" font-family="sans-serif" font-size="13" lengthAdjust="spacing" textLength="53" x="683.5" y="176.9121">manages</text></g><!--link Student to Course--><g id="link_Student_Course"><path codeLine="31" d="M65.17,103.4238 C78.5,118.3438 100.58,139.6938 125,149.3838 C156.31,161.8138 194.91,162.5738 222.97,160.8038 " fill="none" id="Student-Course" style="stroke:#181818;stroke-width:1.0;"/><polygon fill="#000000" points="142.199,141.738,134.7028,135.885,132.6941,141.4089,142.199,141.738" style="stroke:#000000;stroke-width:1.0;"/><text fill="#000000" font-family="sans-serif" font-size="13" lengthAdjust="spacing" textLength="38" x="146.5" y="145.4121">enrolls</text></g><!--link Manager to Course--><g id="link_Manager_Course"><path codeLine="32" d="M95.07,221.8538 C123.24,213.2938 160.69,201.2038 193,188.3838 C204.89,183.6738 217.64,177.8738 228.85,172.5138 " fill="none" id="Manager-Course" style="stroke:#181818;stroke-width:1.0;"/><polygon fill="#000000" points="134.6911,177.2991,125.1878,177.6716,127.2218,183.1864,134.6911,177.2991" style="stroke:#000000;stroke-width:1.0;"/><text fill="#000000" font-family="sans-serif" font-size="13" lengthAdjust="spacing" textLength="53" x="139" y="184.4121">manages</text></g><!--link User to Meeting--><g id="link_User_Meeting"><path codeLine="33" d="M746.51,128.3838 C800.98,128.3838 917.37,128.3838 978.92,128.3838 " fill="none" id="User-Meeting" style="stroke:#181818;stroke-width:1.0;"/><polygon fill="#000000" points="814,119.0293,804.9549,116.0904,804.9549,121.9682,814,119.0293" style="stroke:#000000;stroke-width:1.0;"/><text fill="#000000" font-family="sans-serif" font-size="13" lengthAdjust="spacing" textLength="130" x="818" y="124.4121">attends and/or creates</text></g><!--SRC=[TP0zSiGW34PxJg4k5N7l8aL-ogsoEO36acqcW3mWJtByO8oTP6Usa-O9VGyzpAfBxhjkyHXr3VvnaD0D7dEsv71A68ovElKChnBGHRW8iJV6p8uO0kiijDUZOq_6U1uLL22vQLOWbtXG9x6yg5lX8tDgvPLncC_kNLVYgAsxOCIfiDQ-o9eo7unPNPnQz_PT7DkA6HFJis0g8iLxtm_MrbJeOU4qIWg06PvC2xo7cy4zl1jjz8ZfGMkrqJDwEuUjZeKJZoxolsoIhtXonSzAQvwj5xH_FrL6GhMwqMykFN1CulsD_Kb_t-u1zhXaOQZAaJ9Wf4uI38bHwwZv0G00]--></g></svg>